<!DOCTYPE svg PUBLIC "-//W3C//DTD SVG 20010904//EN" "http://www.w3.org/TR/2001/REC-SVG-20010904/DTD/svg10.dtd">
<svg version="1.0" xmlns="http://www.w3.org/2000/svg" width="205px" height="211px" viewBox="0 0 2050 2110" preserveAspectRatio="xMidYMid meet">
<g id="layer101" fill="#000000" stroke="none">
 <path d="M270 1115 l0 -735 765 0 765 0 0 735 0 735 -765 0 -765 0 0 -735z m1520 0 l0 -725 -755 0 -755 0 0 725 0 725 755 0 755 0 0 -725z"/>
 <path d="M767 1643 c-4 -3 -7 -13 -7 -21 0 -10 7 -12 26 -8 58 15 89 -24 37 -46 -91 -39 -81 -118 14 -118 45 0 54 5 46 26 -4 11 -14 13 -33 9 -17 -4 -31 -1 -39 9 -10 12 -4 18 31 38 35 19 44 29 46 54 4 43 -19 64 -72 64 -23 0 -46 -3 -49 -7z"/>
 <path d="M948 1620 c-28 -28 -30 -35 -25 -78 7 -61 40 -92 102 -92 35 0 48 5 64 26 12 15 21 39 21 55 l0 28 -77 3 -78 3 28 29 c26 26 33 28 74 22 39 -5 44 -4 41 12 -2 13 -15 18 -61 20 -53 3 -60 1 -89 -28z m122 -97 c0 -14 -34 -43 -51 -43 -19 0 -49 25 -49 41 0 5 23 9 50 9 28 0 50 -3 50 -7z"/>
 <path d="M1130 1644 c0 -3 16 -26 35 -51 l35 -45 -28 -37 c-46 -58 -46 -61 -15 -61 22 0 33 8 47 32 l19 31 27 -32 c18 -23 33 -32 49 -29 22 3 22 4 -12 49 l-35 45 34 47 c19 26 34 49 34 52 0 3 -11 5 -25 5 -17 0 -32 -11 -48 -36 l-25 -35 -22 35 c-15 25 -29 36 -46 36 -13 0 -24 -3 -24 -6z"/>
 <path d="M925 1298 c-54 -19 -97 -59 -124 -117 -26 -55 -26 -61 -29 -303 l-4 -248 50 0 50 0 4 233 c4 210 6 236 25 279 31 67 70 90 150 86 55 -3 67 -8 97 -37 50 -49 56 -82 56 -335 l0 -226 51 0 50 0 -3 258 c-3 241 -4 260 -25 297 -47 87 -119 125 -238 124 -44 0 -93 -5 -110 -11z"/>
 </g>

</svg>